<svg width="160" height="180" viewBox="0 0 160 180" fill="none" xmlns="http://www.w3.org/2000/svg">
<rect x="0.665283" width="158.941" height="180" rx="79.4705" fill="url(#paint0_linear_76_1161)"/>
<path d="M101.056 54.7865L81.1403 47.3259C80.4883 47.0819 79.7834 47.0819 79.1313 47.3259L59.216 54.7865C56.0496 55.9682 53.2952 58.241 51.3441 61.2818C49.393 64.3227 48.3445 67.977 48.3476 71.7255V90.0003C48.3476 117.011 77.5928 131.928 78.8452 132.55C79.2515 132.752 79.6912 132.857 80.1358 132.857C80.5804 132.857 81.0201 132.752 81.4264 132.55C82.6789 131.928 111.924 117.011 111.924 90.0003V71.7255C111.927 67.977 110.879 64.3227 108.928 61.2818C106.976 58.241 104.222 55.9682 101.056 54.7865ZM95.1335 81.8468L81.5536 97.1037C80.9979 97.7322 80.3365 98.2305 79.608 98.5695C78.8795 98.9085 78.0984 99.0816 77.3098 99.0787H77.2049C76.4003 99.0649 75.6066 98.8678 74.8717 98.4995C74.1369 98.1312 73.4761 97.5993 72.9294 96.9359L65.5991 88.3646C65.2816 88.0337 65.0277 87.6334 64.8528 87.1882C64.678 86.7431 64.586 86.2625 64.5824 85.776C64.5788 85.2895 64.6638 84.8073 64.832 84.359C65.0003 83.9107 65.2483 83.5057 65.5608 83.1689C65.8734 82.8322 66.2439 82.5707 66.6496 82.4006C67.0553 82.2304 67.4877 82.1552 67.9202 82.1796C68.3527 82.2039 68.7762 82.3273 69.1648 82.5421C69.5533 82.757 69.8987 83.0588 70.1797 83.4289L77.313 91.7859L90.6259 76.7862C91.2255 76.1356 92.0284 75.7757 92.8619 75.7838C93.6954 75.7919 94.4927 76.1675 95.082 76.8297C95.6714 77.4918 96.0057 78.3876 96.013 79.324C96.0202 80.2604 95.6998 81.1625 95.1208 81.8361L95.1335 81.8468Z" fill="url(#paint1_linear_76_1161)"/>
<path d="M151.588 90C151.588 134.777 119.547 170.979 80.1358 170.979C40.725 170.979 8.68389 134.777 8.68389 90C8.68389 45.2225 40.725 9.02144 80.1358 9.02144C119.547 9.02144 151.588 45.2225 151.588 90Z" stroke="#513600" stroke-width="0.9"/>
<defs>
<linearGradient id="paint0_linear_76_1161" x1="0.665283" y1="0" x2="179.281" y2="157.719" gradientUnits="userSpaceOnUse">
<stop stop-color="#F4E3C3"/>
<stop offset="1" stop-color="#FFB457"/>
</linearGradient>
<linearGradient id="paint1_linear_76_1161" x1="80.1358" y1="47.1429" x2="80.1358" y2="132.857" gradientUnits="userSpaceOnUse">
<stop stop-color="#513600"/>
<stop offset="1" stop-color="#B77A00"/>
</linearGradient>
</defs>
</svg>
