<svg width="160" height="181" viewBox="0 0 160 181" fill="none" xmlns="http://www.w3.org/2000/svg">
<rect x="0.897522" y="0.800041" width="158.941" height="180" rx="79.4705" fill="url(#paint0_linear_76_1198)"/>
<path d="M151.82 90.8C151.82 135.577 119.779 171.779 80.368 171.779C40.9572 171.779 8.91613 135.577 8.91613 90.8C8.91613 46.0225 40.9572 9.82144 80.368 9.82144C119.779 9.82144 151.82 46.0225 151.82 90.8Z" stroke="#513600" stroke-width="0.9"/>
<path d="M101.729 55.7865L81.8141 48.3259C81.162 48.0819 80.4571 48.0819 79.8051 48.3259L59.8898 55.7865C56.7233 56.9682 53.9689 59.2409 52.0179 62.2818C50.0668 65.3226 49.0183 68.9769 49.0214 72.7255V91.0002C49.0214 118.011 78.2665 132.928 79.519 133.55C79.9253 133.752 80.365 133.857 80.8096 133.857C81.2542 133.857 81.6939 133.752 82.1002 133.55C83.3526 132.928 112.598 118.011 112.598 91.0002V72.7255C112.601 68.9769 111.552 65.3226 109.601 62.2818C107.65 59.2409 104.896 56.9682 101.729 55.7865ZM95.8073 82.8468L82.2273 98.1037C81.6716 98.7322 81.0103 99.2304 80.2818 99.5695C79.5533 99.9085 78.7721 100.082 77.9836 100.079H77.8787C77.0741 100.065 76.2804 99.8678 75.5455 99.4995C74.8106 99.1312 74.1499 98.5992 73.6032 97.9358L66.2728 89.3645C65.9554 89.0336 65.7014 88.6333 65.5266 88.1882C65.3518 87.7431 65.2598 87.2625 65.2562 86.776C65.2526 86.2895 65.3375 85.8073 65.5058 85.3589C65.674 84.9106 65.922 84.5057 66.2346 84.1689C66.5471 83.8321 66.9176 83.5707 67.3234 83.4005C67.7291 83.2304 68.1615 83.1552 68.594 83.1795C69.0265 83.2039 69.45 83.3273 69.8386 83.5421C70.2271 83.7569 70.5725 84.0587 70.8535 84.4289L77.9868 92.7859L91.2997 77.7861C91.8992 77.1356 92.7022 76.7756 93.5357 76.7838C94.3691 76.7919 95.1664 77.1675 95.7558 77.8296C96.3452 78.4918 96.6795 79.3876 96.6868 80.324C96.694 81.2604 96.3736 82.1625 95.7945 82.8361L95.8073 82.8468Z" fill="url(#paint1_linear_76_1198)"/>
<defs>
<linearGradient id="paint0_linear_76_1198" x1="0.897522" y1="0.800041" x2="179.513" y2="158.519" gradientUnits="userSpaceOnUse">
<stop stop-color="#F4E3C3"/>
<stop offset="1" stop-color="#FFB457"/>
</linearGradient>
<linearGradient id="paint1_linear_76_1198" x1="80.8096" y1="48.1429" x2="80.8096" y2="133.857" gradientUnits="userSpaceOnUse">
<stop stop-color="#513600"/>
<stop offset="1" stop-color="#B77A00"/>
</linearGradient>
</defs>
</svg>
