<svg width="180" height="180" viewBox="0 0 180 180" fill="none" xmlns="http://www.w3.org/2000/svg">
<rect width="180" height="180" rx="90" fill="url(#paint0_linear_76_1161)"/>
<path d="M113.692 54.7865L91.1376 47.3259C90.3991 47.0819 89.6009 47.0819 88.8624 47.3259L66.3084 54.7865C62.7225 55.9682 59.6031 58.241 57.3935 61.2818C55.1839 64.3227 53.9965 67.977 54 71.7255V90.0003C54 117.011 87.12 131.928 88.5384 132.55C88.9986 132.752 89.4965 132.857 90 132.857C90.5035 132.857 91.0014 132.752 91.4616 132.55C92.88 131.928 126 117.011 126 90.0003V71.7255C126.003 67.977 124.816 64.3227 122.606 61.2818C120.397 58.241 117.278 55.9682 113.692 54.7865ZM106.985 81.8468L91.6056 97.1037C90.9763 97.7322 90.2273 98.2305 89.4023 98.5695C88.5773 98.9085 87.6926 99.0816 86.7996 99.0787H86.6808C85.7696 99.0648 84.8707 98.8678 84.0385 98.4995C83.2062 98.1312 82.4579 97.5993 81.8388 96.9359L73.5372 88.3646C73.1777 88.0337 72.8901 87.6334 72.6921 87.1882C72.4941 86.7431 72.3899 86.2625 72.3859 85.776C72.3818 85.2895 72.478 84.8073 72.6685 84.359C72.8591 83.9107 73.1399 83.5057 73.4939 83.1689C73.8479 82.8322 74.2674 82.5707 74.7269 82.4006C75.1864 82.2304 75.6761 82.1552 76.1659 82.1796C76.6557 82.2039 77.1353 82.3273 77.5754 82.5421C78.0154 82.757 78.4065 83.0588 78.7248 83.4289L86.8032 91.7859L101.88 76.7862C102.559 76.1356 103.468 75.7757 104.412 75.7838C105.356 75.7919 106.259 76.1675 106.927 76.8297C107.594 77.4918 107.973 78.3876 107.981 79.324C107.989 80.2604 107.626 81.1625 106.97 81.8361L106.985 81.8468Z" fill="url(#paint1_linear_76_1161)"/>
<circle cx="90" cy="90" r="80.9786" stroke="#513600" stroke-width="0.9"/>
<defs>
<linearGradient id="paint0_linear_76_1161" x1="0" y1="0" x2="180" y2="180" gradientUnits="userSpaceOnUse">
<stop stop-color="#F4E3C3"/>
<stop offset="1" stop-color="#FFB457"/>
</linearGradient>
<linearGradient id="paint1_linear_76_1161" x1="90" y1="47.1429" x2="90" y2="132.857" gradientUnits="userSpaceOnUse">
<stop stop-color="#513600"/>
<stop offset="1" stop-color="#B77A00"/>
</linearGradient>
</defs>
</svg>
