<svg width="181" height="181" viewBox="0 0 181 181" fill="none" xmlns="http://www.w3.org/2000/svg">
<rect x="0.5" y="0.800049" width="180" height="180" rx="90" fill="url(#paint0_linear_76_1198)"/>
<circle cx="90.5" cy="90.8" r="80.9786" stroke="#513600" stroke-width="0.9"/>
<path d="M114.692 55.7865L92.1376 48.3259C91.3991 48.0819 90.6009 48.0819 89.8624 48.3259L67.3084 55.7865C63.7225 56.9682 60.6031 59.2409 58.3935 62.2818C56.1839 65.3226 54.9965 68.9769 55 72.7255V91.0002C55 118.011 88.12 132.928 89.5384 133.55C89.9986 133.752 90.4965 133.857 91 133.857C91.5035 133.857 92.0014 133.752 92.4616 133.55C93.88 132.928 127 118.011 127 91.0002V72.7255C127.003 68.9769 125.816 65.3226 123.606 62.2818C121.397 59.2409 118.278 56.9682 114.692 55.7865ZM107.985 82.8468L92.6056 98.1037C91.9763 98.7322 91.2273 99.2304 90.4023 99.5695C89.5773 99.9085 88.6926 100.082 87.7996 100.079H87.6808C86.7696 100.065 85.8707 99.8678 85.0385 99.4995C84.2062 99.1312 83.4579 98.5992 82.8388 97.9358L74.5372 89.3645C74.1777 89.0336 73.8901 88.6333 73.6921 88.1882C73.4941 87.7431 73.3899 87.2625 73.3859 86.776C73.3818 86.2895 73.478 85.8073 73.6685 85.3589C73.8591 84.9106 74.1399 84.5057 74.4939 84.1689C74.8479 83.8321 75.2674 83.5707 75.7269 83.4005C76.1864 83.2304 76.6761 83.1552 77.1659 83.1796C77.6557 83.2039 78.1353 83.3273 78.5754 83.5421C79.0154 83.757 79.4065 84.0587 79.7248 84.4289L87.8032 92.7859L102.88 77.7861C103.559 77.1356 104.468 76.7756 105.412 76.7838C106.356 76.7919 107.259 77.1675 107.927 77.8297C108.594 78.4918 108.973 79.3876 108.981 80.324C108.989 81.2604 108.626 82.1625 107.97 82.8361L107.985 82.8468Z" fill="url(#paint1_linear_76_1198)"/>
<defs>
<linearGradient id="paint0_linear_76_1198" x1="0.5" y1="0.800049" x2="180.5" y2="180.8" gradientUnits="userSpaceOnUse">
<stop stop-color="#F4E3C3"/>
<stop offset="1" stop-color="#FFB457"/>
</linearGradient>
<linearGradient id="paint1_linear_76_1198" x1="91" y1="48.1429" x2="91" y2="133.857" gradientUnits="userSpaceOnUse">
<stop stop-color="#513600"/>
<stop offset="1" stop-color="#B77A00"/>
</linearGradient>
</defs>
</svg>
