<svg width="122" height="18" viewBox="0 0 122 18" fill="none" xmlns="http://www.w3.org/2000/svg">
<path d="M7.14908 1.04611C8.01747 -0.348703 9.98253 -0.348705 10.8509 1.04611L12.3706 3.48699C12.668 3.96467 13.126 4.31024 13.6554 4.45633L16.3606 5.20282C17.9064 5.6294 18.5137 7.57003 17.5045 8.85866L15.7385 11.1137C15.3929 11.555 15.218 12.1141 15.2478 12.6821L15.4 15.5844C15.487 17.2428 13.8972 18.4422 12.4052 17.8438L9.79408 16.7966C9.28309 16.5917 8.71691 16.5917 8.20592 16.7966L5.59484 17.8438C4.10276 18.4422 2.513 17.2428 2.59999 15.5844L2.75223 12.6821C2.78202 12.1141 2.60706 11.555 2.26146 11.1137L0.495484 8.85866C-0.513667 7.57004 0.0935674 5.6294 1.63941 5.20282L4.34458 4.45633C4.87399 4.31024 5.33203 3.96467 5.62943 3.48699L7.14908 1.04611Z" fill="#FFB90C"/>
<path d="M33.1491 1.04611C34.0175 -0.348703 35.9825 -0.348705 36.8509 1.04611L38.3706 3.48699C38.668 3.96467 39.126 4.31024 39.6554 4.45633L42.3606 5.20282C43.9064 5.6294 44.5137 7.57003 43.5045 8.85866L41.7385 11.1137C41.3929 11.555 41.218 12.1141 41.2478 12.6821L41.4 15.5844C41.487 17.2428 39.8972 18.4422 38.4052 17.8438L35.7941 16.7966C35.2831 16.5917 34.7169 16.5917 34.2059 16.7966L31.5948 17.8438C30.1028 18.4422 28.513 17.2428 28.6 15.5844L28.7522 12.6821C28.782 12.1141 28.6071 11.555 28.2615 11.1137L26.4955 8.85866C25.4863 7.57004 26.0936 5.6294 27.6394 5.20282L30.3446 4.45633C30.874 4.31024 31.332 3.96467 31.6294 3.48699L33.1491 1.04611Z" fill="#FFB90C"/>
<path d="M59.1491 1.04611C60.0175 -0.348703 61.9825 -0.348705 62.8509 1.04611L64.3706 3.48699C64.668 3.96467 65.126 4.31024 65.6554 4.45633L68.3606 5.20282C69.9064 5.6294 70.5137 7.57003 69.5045 8.85866L67.7385 11.1137C67.3929 11.555 67.218 12.1141 67.2478 12.6821L67.4 15.5844C67.487 17.2428 65.8972 18.4422 64.4052 17.8438L61.7941 16.7966C61.2831 16.5917 60.7169 16.5917 60.2059 16.7966L57.5948 17.8438C56.1028 18.4422 54.513 17.2428 54.6 15.5844L54.7522 12.6821C54.782 12.1141 54.6071 11.555 54.2615 11.1137L52.4955 8.85866C51.4863 7.57004 52.0936 5.6294 53.6394 5.20282L56.3446 4.45633C56.874 4.31024 57.332 3.96467 57.6294 3.48699L59.1491 1.04611Z" fill="#FFB90C"/>
<path d="M85.1491 1.04611C86.0175 -0.348703 87.9825 -0.348705 88.8509 1.04611L90.3706 3.48699C90.668 3.96467 91.126 4.31024 91.6554 4.45633L94.3606 5.20282C95.9064 5.6294 96.5137 7.57003 95.5045 8.85866L93.7385 11.1137C93.3929 11.555 93.218 12.1141 93.2478 12.6821L93.4 15.5844C93.487 17.2428 91.8972 18.4422 90.4052 17.8438L87.7941 16.7966C87.2831 16.5917 86.7169 16.5917 86.2059 16.7966L83.5948 17.8438C82.1028 18.4422 80.513 17.2428 80.6 15.5844L80.7522 12.6821C80.782 12.1141 80.6071 11.555 80.2615 11.1137L78.4955 8.85866C77.4863 7.57004 78.0936 5.6294 79.6394 5.20282L82.3446 4.45633C82.874 4.31024 83.332 3.96467 83.6294 3.48699L85.1491 1.04611Z" fill="#FFB90C"/>
<path d="M111.149 1.04611C112.017 -0.348703 113.983 -0.348705 114.851 1.04611L116.371 3.48699C116.668 3.96467 117.126 4.31024 117.655 4.45633L120.361 5.20282C121.906 5.6294 122.514 7.57003 121.505 8.85866L119.739 11.1137C119.393 11.555 119.218 12.1141 119.248 12.6821L119.4 15.5844C119.487 17.2428 117.897 18.4422 116.405 17.8438L113.794 16.7966C113.283 16.5917 112.717 16.5917 112.206 16.7966L109.595 17.8438C108.103 18.4422 106.513 17.2428 106.6 15.5844L106.752 12.6821C106.782 12.1141 106.607 11.555 106.261 11.1137L104.495 8.85866C103.486 7.57004 104.094 5.6294 105.639 5.20282L108.345 4.45633C108.874 4.31024 109.332 3.96467 109.629 3.48699L111.149 1.04611Z" fill="#FFB90C"/>
</svg>
