<svg width="32" height="32" viewBox="0 0 32 32" fill="none" xmlns="http://www.w3.org/2000/svg">
<path d="M16 0C12.8355 0 9.74207 0.938383 7.11088 2.69649C4.4797 4.45459 2.42894 6.95345 1.21793 9.87706C0.00693261 12.8007 -0.309921 16.0177 0.307443 19.1214C0.924806 22.2251 2.44866 25.0761 4.6863 27.3137C6.92394 29.5513 9.77486 31.0752 12.8786 31.6926C15.9823 32.3099 19.1993 31.9931 22.1229 30.7821C25.0466 29.5711 27.5454 27.5203 29.3035 24.8891C31.0616 22.2579 32 19.1645 32 16C31.9954 11.7579 30.3082 7.69095 27.3086 4.69136C24.3091 1.69177 20.2421 0.00458811 16 0ZM16 29.3333C13.3629 29.3333 10.7851 28.5513 8.5924 27.0863C6.39975 25.6212 4.69078 23.5388 3.68161 21.1024C2.67244 18.6661 2.4084 15.9852 2.92287 13.3988C3.43734 10.8124 4.70722 8.43661 6.57192 6.57191C8.43661 4.70721 10.8124 3.43733 13.3988 2.92286C15.9852 2.40839 18.6661 2.67244 21.1024 3.68161C23.5388 4.69077 25.6212 6.39974 27.0863 8.59239C28.5513 10.785 29.3333 13.3629 29.3333 16C29.3295 19.535 27.9234 22.9242 25.4238 25.4238C22.9242 27.9234 19.535 29.3294 16 29.3333Z" fill="#898989"/>
<path d="M16 13.3333H14.6667C14.313 13.3333 13.9739 13.4738 13.7239 13.7239C13.4738 13.9739 13.3333 14.313 13.3333 14.6667C13.3333 15.0203 13.4738 15.3594 13.7239 15.6095C13.9739 15.8595 14.313 16 14.6667 16H16V24C16 24.3536 16.1405 24.6928 16.3905 24.9428C16.6406 25.1929 16.9797 25.3333 17.3333 25.3333C17.687 25.3333 18.0261 25.1929 18.2761 24.9428C18.5262 24.6928 18.6667 24.3536 18.6667 24V16C18.6667 15.2928 18.3857 14.6145 17.8856 14.1144C17.3855 13.6143 16.7072 13.3333 16 13.3333Z" fill="#898989"/>
<path d="M16 10.6667C17.1046 10.6667 18 9.77123 18 8.66666C18 7.56209 17.1046 6.66666 16 6.66666C14.8954 6.66666 14 7.56209 14 8.66666C14 9.77123 14.8954 10.6667 16 10.6667Z" fill="#898989"/>
</svg>
