<svg width="25" height="32" viewBox="0 0 25 32" fill="none" xmlns="http://www.w3.org/2000/svg">
<path d="M12.5 16C14.1482 16 15.7593 15.5308 17.1298 14.6518C18.5002 13.7727 19.5683 12.5233 20.199 11.0615C20.8297 9.59966 20.9948 7.99113 20.6732 6.43928C20.3517 4.88743 19.558 3.46197 18.3926 2.34315C17.2271 1.22433 15.7423 0.462403 14.1258 0.153721C12.5092 -0.15496 10.8337 0.00346631 9.31097 0.608967C7.78825 1.21447 6.48677 2.23985 5.57109 3.55544C4.65541 4.87103 4.16667 6.41775 4.16667 8C4.16887 10.1211 5.04756 12.1547 6.60988 13.6545C8.17221 15.1544 10.2905 15.9979 12.5 16ZM12.5 2.66667C13.5988 2.66667 14.6729 2.97946 15.5865 3.5655C16.5001 4.15153 17.2122 4.98449 17.6327 5.95903C18.0532 6.93356 18.1632 8.00592 17.9488 9.04048C17.7344 10.075 17.2053 11.0254 16.4284 11.7712C15.6514 12.5171 14.6615 13.0251 13.5838 13.2309C12.5062 13.4366 11.3891 13.331 10.374 12.9274C9.35884 12.5237 8.49118 11.8401 7.88073 10.963C7.27027 10.086 6.94444 9.05484 6.94444 8C6.94444 6.58552 7.52976 5.22896 8.57163 4.22877C9.6135 3.22857 11.0266 2.66667 12.5 2.66667Z" fill="#898989"/>
<path d="M12.5 18.6667C9.18592 18.6702 6.00863 19.9356 3.66523 22.1853C1.32182 24.435 0.00367618 27.4852 0 30.6667C0 31.0203 0.146329 31.3594 0.406796 31.6095C0.667263 31.8595 1.02053 32 1.38889 32C1.75725 32 2.11051 31.8595 2.37098 31.6095C2.63145 31.3594 2.77778 31.0203 2.77778 30.6667C2.77778 28.1913 3.80208 25.8173 5.62535 24.067C7.44862 22.3167 9.92151 21.3333 12.5 21.3333C15.0785 21.3333 17.5514 22.3167 19.3746 24.067C21.1979 25.8173 22.2222 28.1913 22.2222 30.6667C22.2222 31.0203 22.3686 31.3594 22.629 31.6095C22.8895 31.8595 23.2428 32 23.6111 32C23.9795 32 24.3327 31.8595 24.5932 31.6095C24.8537 31.3594 25 31.0203 25 30.6667C24.9963 27.4852 23.6782 24.435 21.3348 22.1853C18.9914 19.9356 15.8141 18.6702 12.5 18.6667Z" fill="#898989"/>
</svg>
