<svg width="10" height="18" viewBox="0 0 10 18" fill="none" xmlns="http://www.w3.org/2000/svg">
<path d="M10 16.877C9.9997 16.5784 9.86606 16.2921 9.62844 16.0811L3.14972 10.3205C2.95362 10.1462 2.79806 9.93925 2.69193 9.71147C2.5858 9.48369 2.53118 9.23956 2.53118 8.99301C2.53118 8.74646 2.5858 8.50233 2.69193 8.27455C2.79806 8.04677 2.95362 7.83982 3.14972 7.6655L9.61999 1.90872C9.85073 1.6963 9.97841 1.4118 9.97552 1.11649C9.97263 0.821185 9.83942 0.538701 9.60456 0.329879C9.36971 0.121058 9.052 0.00260871 8.71988 4.25763e-05C8.38776 -0.00252356 8.06779 0.110999 7.82889 0.31616L1.35861 6.06844C0.488614 6.84352 9.53674e-07 7.89383 9.53674e-07 8.98888C9.53674e-07 10.0839 0.488614 11.1342 1.35861 11.9093L7.83733 17.6699C8.01423 17.8272 8.2396 17.9345 8.48499 17.9781C8.73039 18.0218 8.98482 17.9998 9.21618 17.915C9.44754 17.8301 9.64545 17.6863 9.78495 17.5015C9.92445 17.3168 9.99928 17.0995 10 16.877Z" fill="#5C574D"/>
</svg>
