<svg width="14" height="14" viewBox="0 0 14 14" fill="none" xmlns="http://www.w3.org/2000/svg">
<path fill-rule="evenodd" clip-rule="evenodd" d="M11.9608 2.03467C10.6443 0.723333 8.89412 0.000583333 7.0296 0C3.18744 0 0.0603726 3.1115 0.0586142 6.937C0.058028 8.15967 0.379234 9.35317 0.989407 10.4055L0 14L3.69504 13.0352C4.71317 13.5882 5.85966 13.8793 7.02608 13.8798H7.02901C10.8706 13.8798 13.9982 10.7677 14 6.94225C14.0012 5.089 13.2767 3.34542 11.9608 2.03467ZM7.0296 12.7079H7.02725C5.98744 12.7079 4.96814 12.4297 4.07837 11.9041L3.86678 11.7793L1.67402 12.3515L2.25958 10.2235L2.12183 10.0053C1.54155 9.08717 1.23559 8.02608 1.23617 6.937C1.23735 3.75783 3.83688 1.17133 7.03253 1.17133C8.57994 1.17133 10.0347 1.77217 11.1285 2.86183C12.2222 3.95208 12.8242 5.4005 12.8236 6.94108C12.8219 10.1214 10.2229 12.7079 7.0296 12.7079ZM10.2077 8.3895C10.0336 8.30258 9.17722 7.88317 9.01721 7.82542C8.85778 7.76767 8.74172 7.7385 8.62508 7.91175C8.50844 8.085 8.17551 8.47583 8.07352 8.59192C7.97212 8.70742 7.87013 8.722 7.69604 8.63508C7.52196 8.54817 6.96043 8.36558 6.29516 7.77467C5.7776 7.315 5.42767 6.74742 5.32627 6.57358C5.22487 6.39975 5.31572 6.30642 5.40247 6.22008C5.48101 6.1425 5.57655 6.01767 5.66389 5.91617C5.75181 5.81583 5.78053 5.7435 5.83915 5.62742C5.89717 5.51192 5.86845 5.41042 5.82449 5.3235C5.78053 5.23717 5.43236 4.38375 5.28759 4.03667C5.14633 3.69833 5.00272 3.74442 4.89546 3.73917C4.79405 3.73392 4.678 3.73333 4.56136 3.73333C4.4453 3.73333 4.25656 3.7765 4.09713 3.95033C3.9377 4.12417 3.48754 4.54358 3.48754 5.39642C3.48754 6.24983 4.11178 7.07408 4.19853 7.18958C4.28528 7.30508 5.4265 9.05625 7.17379 9.807C7.58936 9.9855 7.91409 10.0923 8.16671 10.1722C8.58405 10.304 8.96387 10.2853 9.26397 10.241C9.59866 10.1914 10.2944 9.82158 10.4398 9.41675C10.5851 9.01192 10.5851 8.66425 10.5412 8.5925C10.4978 8.51958 10.3817 8.47642 10.2077 8.3895Z" fill="white"/>
</svg>
