<svg width="10" height="18" viewBox="0 0 10 18" fill="none" xmlns="http://www.w3.org/2000/svg">
<path d="M0 16.877C0.00029565 16.5784 0.133945 16.2921 0.371564 16.0811L6.85028 10.3205C7.04638 10.1462 7.20194 9.93925 7.30807 9.71147C7.4142 9.48369 7.46882 9.23956 7.46882 8.99301C7.46882 8.74646 7.4142 8.50233 7.30807 8.27455C7.20194 8.04677 7.04638 7.83982 6.85028 7.6655L0.380008 1.90872C0.14927 1.6963 0.0215939 1.4118 0.02448 1.11649C0.0273661 0.821185 0.160583 0.538701 0.395439 0.329879C0.630294 0.121058 0.947997 0.00260871 1.28012 4.25763e-05C1.61224 -0.00252356 1.93221 0.110999 2.17111 0.31616L8.64139 6.06844C9.51139 6.84352 10 7.89383 10 8.98888C10 10.0839 9.51139 11.1342 8.64139 11.9093L2.16267 17.6699C1.98577 17.8272 1.7604 17.9345 1.51501 17.9781C1.26961 18.0218 1.01518 17.9998 0.783821 17.915C0.552464 17.8301 0.354548 17.6863 0.215049 17.5015C0.0755506 17.3168 0.000719734 17.0995 0 16.877Z" fill="#121212"/>
</svg>
